<mxfile host="app.diagrams.net" modified="2021-08-09T19:54:48.472Z" agent="5.0 (Windows NT 10.0; Win64; x64) AppleWebKit/537.36 (KHTML, like Gecko) Chrome/92.0.4515.131 Safari/537.36" etag="xi3a5z7otY6itiWbahRs" version="14.6.6" type="github">
  <diagram name="Page-1" id="97916047-d0de-89f5-080d-49f4d83e522f">
    <mxGraphModel dx="1896" dy="1061" grid="1" gridSize="10" guides="1" tooltips="1" connect="1" arrows="1" fold="1" page="1" pageScale="1.5" pageWidth="1169" pageHeight="827" background="none" math="0" shadow="0">
      <root>
        <mxCell id="0" />
        <mxCell id="1" parent="0" />
        <mxCell id="epO5_iVrW7eRA0rSdX63-56" style="edgeStyle=orthogonalEdgeStyle;rounded=0;orthogonalLoop=1;jettySize=auto;html=1;exitX=0.5;exitY=1;exitDx=0;exitDy=0;entryX=0;entryY=0.5;entryDx=0;entryDy=0;" edge="1" parent="1" source="2" target="epO5_iVrW7eRA0rSdX63-55">
          <mxGeometry relative="1" as="geometry" />
        </mxCell>
        <mxCell id="epO5_iVrW7eRA0rSdX63-58" style="edgeStyle=orthogonalEdgeStyle;rounded=0;orthogonalLoop=1;jettySize=auto;html=1;exitX=0.5;exitY=1;exitDx=0;exitDy=0;entryX=0;entryY=0.5;entryDx=0;entryDy=0;" edge="1" parent="1" source="2" target="epO5_iVrW7eRA0rSdX63-57">
          <mxGeometry relative="1" as="geometry" />
        </mxCell>
        <mxCell id="2" value="Carnow Microservice Root" style="rounded=1;fillColor=#10739E;strokeColor=none;shadow=1;gradientColor=none;fontStyle=1;fontColor=#FFFFFF;fontSize=14;" parent="1" vertex="1">
          <mxGeometry x="102" y="110" width="200" height="60" as="geometry" />
        </mxCell>
        <mxCell id="epO5_iVrW7eRA0rSdX63-62" style="edgeStyle=orthogonalEdgeStyle;rounded=0;orthogonalLoop=1;jettySize=auto;html=1;exitX=1;exitY=0.5;exitDx=0;exitDy=0;entryX=0;entryY=0.5;entryDx=0;entryDy=0;" edge="1" parent="1" source="epO5_iVrW7eRA0rSdX63-55" target="epO5_iVrW7eRA0rSdX63-61">
          <mxGeometry relative="1" as="geometry" />
        </mxCell>
        <mxCell id="epO5_iVrW7eRA0rSdX63-71" style="edgeStyle=orthogonalEdgeStyle;rounded=0;orthogonalLoop=1;jettySize=auto;html=1;exitX=1;exitY=0.5;exitDx=0;exitDy=0;entryX=0;entryY=0.5;entryDx=0;entryDy=0;fontSize=23;strokeColor=#000000;" edge="1" parent="1" source="epO5_iVrW7eRA0rSdX63-55" target="epO5_iVrW7eRA0rSdX63-70">
          <mxGeometry relative="1" as="geometry" />
        </mxCell>
        <mxCell id="epO5_iVrW7eRA0rSdX63-55" value="Libraries" style="rounded=1;whiteSpace=wrap;html=1;" vertex="1" parent="1">
          <mxGeometry x="330" y="200" width="120" height="60" as="geometry" />
        </mxCell>
        <mxCell id="epO5_iVrW7eRA0rSdX63-60" style="edgeStyle=orthogonalEdgeStyle;rounded=0;orthogonalLoop=1;jettySize=auto;html=1;exitX=1;exitY=0.5;exitDx=0;exitDy=0;entryX=0;entryY=0.5;entryDx=0;entryDy=0;" edge="1" parent="1" source="epO5_iVrW7eRA0rSdX63-57" target="epO5_iVrW7eRA0rSdX63-59">
          <mxGeometry relative="1" as="geometry" />
        </mxCell>
        <mxCell id="epO5_iVrW7eRA0rSdX63-73" style="edgeStyle=orthogonalEdgeStyle;rounded=0;orthogonalLoop=1;jettySize=auto;html=1;exitX=1;exitY=0.5;exitDx=0;exitDy=0;entryX=0;entryY=0.5;entryDx=0;entryDy=0;fontSize=23;strokeColor=#000000;" edge="1" parent="1" source="epO5_iVrW7eRA0rSdX63-57" target="epO5_iVrW7eRA0rSdX63-72">
          <mxGeometry relative="1" as="geometry" />
        </mxCell>
        <mxCell id="epO5_iVrW7eRA0rSdX63-57" value="Services" style="rounded=1;whiteSpace=wrap;html=1;" vertex="1" parent="1">
          <mxGeometry x="330" y="330" width="120" height="60" as="geometry" />
        </mxCell>
        <mxCell id="epO5_iVrW7eRA0rSdX63-59" value="Inventory" style="rounded=1;whiteSpace=wrap;html=1;" vertex="1" parent="1">
          <mxGeometry x="590" y="330" width="120" height="60" as="geometry" />
        </mxCell>
        <mxCell id="epO5_iVrW7eRA0rSdX63-64" style="edgeStyle=orthogonalEdgeStyle;rounded=0;orthogonalLoop=1;jettySize=auto;html=1;exitX=0.5;exitY=1;exitDx=0;exitDy=0;entryX=0.5;entryY=0;entryDx=0;entryDy=0;dashed=1;" edge="1" parent="1" source="epO5_iVrW7eRA0rSdX63-61" target="epO5_iVrW7eRA0rSdX63-59">
          <mxGeometry relative="1" as="geometry" />
        </mxCell>
        <mxCell id="epO5_iVrW7eRA0rSdX63-61" value="Security" style="rounded=1;whiteSpace=wrap;html=1;" vertex="1" parent="1">
          <mxGeometry x="590" y="200" width="120" height="60" as="geometry" />
        </mxCell>
        <mxCell id="epO5_iVrW7eRA0rSdX63-70" value="..." style="rounded=1;whiteSpace=wrap;html=1;fontSize=20;" vertex="1" parent="1">
          <mxGeometry x="590" y="80" width="120" height="60" as="geometry" />
        </mxCell>
        <mxCell id="epO5_iVrW7eRA0rSdX63-72" value="&lt;font style=&quot;font-size: 20px&quot;&gt;...&lt;/font&gt;" style="rounded=1;whiteSpace=wrap;html=1;" vertex="1" parent="1">
          <mxGeometry x="590" y="410" width="120" height="60" as="geometry" />
        </mxCell>
      </root>
    </mxGraphModel>
  </diagram>
</mxfile>
